<svg xmlns="http://www.w3.org/2000/svg" version="1.1" xmlns:xlink="http://www.w3.org/1999/xlink" xmlns:svgjs="http://svgjs.dev/svgjs" width="1000" height="1125" viewBox="0 0 1000 1125"><g transform="matrix(1,0,0,1,0.00007343750002064553,0)"><svg viewBox="0 0 320 360" data-background-color="#ffffff" preserveAspectRatio="xMidYMid meet" height="1125" width="1000" xmlns="http://www.w3.org/2000/svg" xmlns:xlink="http://www.w3.org/1999/xlink"><g id="tight-bounds" transform="matrix(1,0,0,1,0.000023499999997511622,0)"><svg viewBox="0 0 320 360" height="360" width="320"><g><svg></svg></g><g><svg viewBox="0 0 320 360" height="360" width="320"><g><path transform="translate(-74.99272,-51.79039) scale(4.65793,4.65793)" d="M20.6 59.9l0.8 1-0.4-1.3c-0.1-0.6-0.8 0.1-0.4 0.3M21.5 59.3c0.3 0.5 0.6 1 0.6 1.5 0 0.7 0.6 1 1.1 1.2-0.7-0.8-1.1-3-1.7-2.7M59.9 16.9c1.7 0 3.3-0.2 5.1 0.2 4.4 1.1 8.1 3.3 10.6 6.4l7 11.2c0.3 2.8 0.9 5.9 0.8 9.3 0.7 0 0.6-1 1.4-1.2-0.8 2-1.2 4.5-1.4 7.4-0.5-1.6 0-4 0.1-5.3-0.7 1.1-1.1 0.3-1.1-0.2 0.1-0.8-0.3-0.7-0.6-1-1.1-1-1.8-2.1-2.6-3.8 0.5-1.3 0.6-3.2-1-4.2-0.5-0.3-1.1-0.8-1.4-1.6-0.4-1.1-1.1-2.4-0.9-4.1 0.1-0.5-1.5 1.1-2.4 0.4-3.9-2.7-7.8-5.8-12.5-8.4-2.5 0-4.3-0.9-5.2-2-0.8-1-0.2-2.3 1-2.4 0.7 0 1.5-0.2 2.1 0.2 0.1-0.4 0.5-0.9 1-0.9M50 14.6l0.2 0.1c1 0.2 1.5 1.6 2.6 1.1 0 0.7 0.1 1.4-0.1 1.9-0.3 0.8-1.2 0.8-1.9 0.8-6.7-0.4-10.6 2.4-14.7 4.8-1.1 0.7-2.3 1.2-3.2 2.1-4.3 4-9 7.7-10.1 15.1l-0.9 8.2c-0.1 0.9-1.1 1.8-0.9 2.9l0.7 4.9c-0.7-0.7-1.1 0.2-0.9 0.6 0.1 0.3 0.5 1.3 1.1 0.4 0.8 1.5 1.6 4.4 2.7 5.7 3.4 4 7.8 7.6 11.4 11.2 0.9-0.2 1.6-0.2 1.8-0.8 0.3 0.6-0.3 1.2-0.8 1.3 1.6 1 3.4 1.9 5.8 2.1 3.1 0.2 6 0.7 8.7 1.4 1.4-0.4 2.8-0.6 4.3-0.7 0.5 0 0.8-0.8 1.4-1l0.1-1c0.6 0.9 0.5-0.3 0.1-0.9 0.7 0.6 0.9 1.1 1.2 1.5 0-0.3 0.8-1.4 0.8-0.1l0.2-1.3c0.3-0.2 0.4 1.1 0.7 0.2 0.3-0.9 0.9-0.2 1.5-0.5-0.2 0.4-0.1 1.2 0.6 0.7l0.8-0.7c0.5 1.2 1.3 0.7 1.7 0.5 4.4-2.8 8.8-6.1 13-9.4l-0.1 1.3 0.5-1.6c0.5 0.5 0.9 0.1 1.1-0.2 0.6-1 1.4-2 2.7-2.9-1.6 4.3-3.5 7.7-5.9 10.5l-1 1.2c0 0.7-0.2 1.6-1 1.7-0.4 0.1-1.2-0.2-1.8 0.4-0.3 0.4 0.7 1.2-0.1 0.6-0.7-0.5-1.4 0-2.2 0.2-0.6 0.2 0.4 0.8 0.6 1.2 0.2 0.4 0.4 0.8 0.3 1.3l-1.1-1.2c-1.3 0.7-2.1 2-3.2 3-0.5 0.4-0.3 1.1-0.3 1.7-0.7 0-1.5-0.2-1.9 0.2-0.3 0.4-0.2 1-0.2 1.6-1-0.1-1.1-1.6-2-1.3-0.9 0.2-1.9 0.3-2.7 0.8 0.6 1.2-1 0.5-0.8 0.7-1.5-0.9-2.8-1.6-4.4-1-3.4-1.1-7.6-0.6-10.7-0.2 0-0.5 0.1-1-0.1-1.1-0.2 0.5-0.8 0.3-0.7 0.3-1.9-1.3-3.8-2.1-5.8-3.2-1.8 0.2-3.5-0.7-4-1.2-1.4-1.3-3-0.6-4.3-0.9-2.8-0.7-3.8-3.6-4.1-5.6-0.2-1-1-1.4-1.3-1.3-1.3-4.2-3.3-8-4.9-11.9-0.4-1-0.3-2-0.3-3.1 0.5 0.2 1 0.1 0.9-0.6-0.5-3.3-1.7-5.8-3-8.2 0.7-3.4 0.8-7.4 2.4-10.4 1.4-2.7 4-4.1 5.8-6.4 0.6-0.8 0.6-1.9 1.2-2.6 2-2 4-4.1 6.2-5.9 1-0.8 2.2 0 3.7-0.3 0.5-1.8 2.5-3.4 4.4-2.9 0.8 0.2 2.4-1.9 2.9-2.1 0.8-0.3 0.4 0.8 0.4 1.5 1.9-1.5 4.5-2.3 6.9-3.2" fill="#6b7280" fill-rule="nonzero" stroke="none" stroke-width="1" stroke-linecap="butt" stroke-linejoin="miter" stroke-miterlimit="10" stroke-dasharray="" stroke-dashoffset="0" font-family="none" font-weight="none" font-size="none" text-anchor="none" style="mix-blend-mode: normal" data-fill-palette-color="tertiary"></path></g><g transform="matrix(1,0,0,1,64,92.73652537347672)"><svg viewBox="0 0 192 174.52694925304655" height="174.52694925304655" width="192"><g><svg viewBox="0 0 192 174.52694925304655" height="174.52694925304655" width="192"><g><svg viewBox="0 0 192 174.52694925304655" height="174.52694925304655" width="192"><g transform="matrix(1,0,0,1,0,103.71709692329748)"><svg viewBox="0 0 192 70.80985232974909" height="70.80985232974909" width="192"><g id="textblocktransform"><svg viewBox="0 0 192 70.80985232974909" height="70.80985232974909" width="192" id="textblock"><g><svg viewBox="0 0 192 40.143369175627235" height="40.143369175627235" width="192"><g transform="matrix(1,0,0,1,0,0)"><svg width="192" viewBox="0.15 -35 167.39 35" height="40.143369175627235" data-palette-color="#6b7280"><path d="M22.95-13.9L22.95-8.3 8.3-8.3 8.3-13.9 22.95-13.9ZM24.9 0L14.8-28.75 16.45-28.75 6.35 0 0.15 0 12.6-35 18.65-35 31.1 0 24.9 0ZM47.55 0L41.5 0 29.05-35 35.5-35 45.15-7.4 43.85-7.4 53.55-35 60-35 47.55 0ZM70.25 0L63.85 0 63.85-35 70.25-35 70.25 0ZM84.34 0L77.94 0 77.94-35 84.24-35 99.19-12.4 99.19-35 105.59-35 105.59 0 100.34 0 84.34-24 84.34 0ZM127.74 0L121.34 0 121.34-14.15 109.04-35 116.04-35 126.04-17.25 123.04-17.25 133.04-35 140.04-35 127.74-14.15 127.74 0ZM159.39-13.9L159.39-8.3 144.74-8.3 144.74-13.9 159.39-13.9ZM161.34 0L151.24-28.75 152.89-28.75 142.79 0 136.59 0 149.04-35 155.09-35 167.54 0 161.34 0Z" opacity="1" transform="matrix(1,0,0,1,0,0)" fill="#6b7280" class="undefined-text-0" data-fill-palette-color="primary" id="text-0"></path></svg></g></svg></g><g transform="matrix(1,0,0,1,0,46.00125017921147)"><svg viewBox="0 0 192 24.80860215053763" height="24.80860215053763" width="192"><g transform="matrix(1,0,0,1,0,0)"><svg width="192" viewBox="5 -33.25 263.13 34" height="24.80860215053763" data-palette-color="#170202"><path d="M8.5-32.5L8.5 0 5 0 5-32.5 8.5-32.5ZM27.35-25.25L27.35 0 23.85 0 23.85-32.5 25.35-32.5 26.6-29.25Q29-33.25 33.25-33.25L33.25-33.25Q40.6-33.25 40.6-26.25L40.6-26.25 40.6 0 37.1 0 37.1-26.25Q37.1-28.15 36.28-29.2 35.45-30.25 33.25-30.25 31.05-30.25 29.2-28.55 27.35-26.85 27.35-25.25L27.35-25.25ZM58.96-25.25L58.96 0 55.46 0 55.46-32.5 56.96-32.5 58.21-29.25Q60.61-33.25 64.86-33.25L64.86-33.25Q72.21-33.25 72.21-26.25L72.21-26.25 72.21 0 68.71 0 68.71-26.25Q68.71-28.15 67.88-29.2 67.06-30.25 64.86-30.25 62.66-30.25 60.81-28.55 58.96-26.85 58.96-25.25L58.96-25.25ZM103.31-26.25L103.31-26.25 103.31-6.25Q103.31-2.9 101.19-1.07 99.06 0.75 94.84 0.75 90.61 0.75 88.46-1.07 86.31-2.9 86.31-6.25L86.31-6.25 86.31-26.25Q86.31-29.6 88.44-31.43 90.56-33.25 94.79-33.25 99.01-33.25 101.16-31.43 103.31-29.6 103.31-26.25ZM99.81-6.25L99.81-6.25 99.81-26.25Q99.81-30.25 94.81-30.25 89.81-30.25 89.81-26.25L89.81-26.25 89.81-6.25Q89.81-2.25 94.81-2.25 99.81-2.25 99.81-6.25ZM134.87-32.5L127.52 0 122.27 0 114.92-32.5 118.42-32.5 124.87-3.85 131.37-32.5 134.87-32.5ZM162.72-26.25L162.72 0 161.22 0 159.92-3.2Q158.87-1.4 157.17-0.33 155.47 0.75 153.42 0.75L153.42 0.75Q146.22 0.75 146.22-6.25L146.22-6.25 146.22-11.25Q146.22-18.25 153.42-18.25L153.42-18.25 159.22-18.25 159.22-26.45Q159.22-28.25 158.07-29.25 156.92-30.25 154.67-30.25L154.67-30.25Q150.22-30.25 150.22-26.45L150.22-26.45 150.22-23.5 146.72-23.5 146.72-26.25Q146.72-29.6 148.69-31.43 150.67-33.25 154.67-33.25 158.67-33.25 160.69-31.43 162.72-29.6 162.72-26.25L162.72-26.25ZM159.22-7.1L159.22-15.25 153.42-15.25Q151.32-15.25 150.52-14.2 149.72-13.15 149.72-11.25L149.72-11.25 149.72-6.25Q149.72-4.35 150.52-3.3 151.32-2.25 153.42-2.25 155.52-2.25 157.32-3.88 159.12-5.5 159.22-7.1L159.22-7.1ZM176.82-5.75L176.82-32.5 187.82-32.5 187.82-29.5 180.32-29.5 180.32-5.55Q180.32-4.15 181.05-3.2 181.77-2.25 183.1-2.25 184.42-2.25 185.12-3.18 185.82-4.1 185.82-5.55L185.82-5.55 185.82-11.5 189.32-11.5 189.32-5.75Q189.32-2.6 187.65-0.93 185.97 0.75 183.12 0.75 180.27 0.75 178.55-0.93 176.82-2.6 176.82-5.75L176.82-5.75ZM205.18-32.5L205.18 0 201.68 0 201.68-32.5 205.18-32.5ZM236.78-26.25L236.78-26.25 236.78-6.25Q236.78-2.9 234.66-1.07 232.53 0.75 228.31 0.75 224.08 0.75 221.93-1.07 219.78-2.9 219.78-6.25L219.78-6.25 219.78-26.25Q219.78-29.6 221.91-31.43 224.03-33.25 228.26-33.25 232.48-33.25 234.63-31.43 236.78-29.6 236.78-26.25ZM233.28-6.25L233.28-6.25 233.28-26.25Q233.28-30.25 228.28-30.25 223.28-30.25 223.28-26.25L223.28-26.25 223.28-6.25Q223.28-2.25 228.28-2.25 233.28-2.25 233.28-6.25ZM254.88-25.25L254.88 0 251.38 0 251.38-32.5 252.88-32.5 254.13-29.25Q256.53-33.25 260.78-33.25L260.78-33.25Q268.13-33.25 268.13-26.25L268.13-26.25 268.13 0 264.63 0 264.63-26.25Q264.63-28.15 263.81-29.2 262.98-30.25 260.78-30.25 258.58-30.25 256.73-28.55 254.88-26.85 254.88-25.25L254.88-25.25Z" opacity="1" transform="matrix(1,0,0,1,0,0)" fill="#170202" class="undefined-text-1" data-fill-palette-color="secondary" id="text-1"></path></svg></g></svg></g></svg></g></svg></g><g transform="matrix(1,0,0,1,47.070392040143375,0)"><svg viewBox="0 0 97.85921591971325 97.85921591971325" height="97.85921591971325" width="97.85921591971325"><g><svg xmlns="http://www.w3.org/2000/svg" xmlns:xlink="http://www.w3.org/1999/xlink" version="1.1" x="0" y="0" viewBox="0 0 60 60" enable-background="new 0 0 60 60" xml:space="preserve" height="97.85921591971325" width="97.85921591971325" class="icon-icon-0" data-fill-palette-color="accent" id="icon-0"><g fill="#000000" data-fill-palette-color="accent"><path fill="#000000" d="M37.54 52.33c0.14 0.4 0.52 0.67 0.94 0.67h11.39c0.44 0 0.82-0.28 0.95-0.7l3.12-9.89c0.12-0.37 0.01-0.78-0.29-1.04l-9-8.11c-0.38-0.34-0.95-0.34-1.33 0l-9 8.03c-0.3 0.27-0.41 0.69-0.28 1.08L37.54 52.33zM44 35.34l7.86 7.08L49.15 51H39.2l-3.03-8.67L44 35.34z" data-fill-palette-color="accent"></path><path fill="#000000" d="M59 0H1C0.45 0 0 0.45 0 1v58c0 0.55 0.45 1 1 1h58c0.55 0 1-0.45 1-1V1C60 0.45 59.55 0 59 0zM58 58H2V2h56V58z" data-fill-palette-color="accent"></path><path fill="#000000" d="M7 26h18c0.55 0 1-0.45 1-1V7c0-0.55-0.45-1-1-1H7C6.45 6 6 6.45 6 7v18C6 25.55 6.45 26 7 26zM8 8h16v16H8V8z" data-fill-palette-color="accent"></path><path fill="#000000" d="M35 26h18c0.01 0 0.01 0 0.02 0 0.55 0 1-0.45 1-1 0-0.23-0.08-0.44-0.21-0.61L44.89 6.55c-0.34-0.68-1.45-0.68-1.79 0l-9 18c-0.16 0.31-0.14 0.68 0.04 0.97C34.33 25.82 34.65 26 35 26zM44 9.24L51.38 24H36.62L44 9.24z" data-fill-palette-color="accent"></path><path fill="#000000" d="M16 54c5.51 0 10-4.49 10-10s-4.49-10-10-10S6 38.49 6 44 10.49 54 16 54zM16 36c4.41 0 8 3.59 8 8s-3.59 8-8 8-8-3.59-8-8S11.59 36 16 36z" data-fill-palette-color="accent"></path></g></svg></g></svg></g><g></g></svg></g></svg></g></svg></g></svg></g><defs></defs></svg><rect width="320" height="360" fill="none" stroke="none" visibility="hidden"></rect></g></svg></g></svg>